<svg xmlns="http://www.w3.org/2000/svg" width="39" height="39" viewBox="0 0 39 39">
    <defs>
        <linearGradient id="cards-a" x1="0%" x2="85.595%" y1="7.231%" y2="100%">
            <stop offset="0%" stop-color="#6F5DF5"/>
            <stop offset="100%" stop-color="#4E96F3"/>
        </linearGradient>
    </defs>
    <g fill="url(#cards-a)">
        <path d="M14,20 L5,20 L5,27 L14,27 L14,20 L14,20 Z M12.3441901,25.297076 L6.64788732,25.297076 L6.64788732,21.7111111 L12.3441901,21.7111111 L12.3441901,25.297076 Z"/>
        <rect width="17" height="2" x="13" y="32"/>
        <path d="M35.1652387,0 L8.75948592,0 C6.68298654,0 4.94063647,1.74306122 4.94063647,3.82040816 L4.94063647,15.1861224 L3.81884945,15.1861224 C1.74235006,15.1861224 0,16.9291837 0,19.0065306 L0,35.1795918 C0,37.2569388 1.74235006,39 3.81884945,39 L31.0281518,39 C33.1046512,39 34.8470012,37.2569388 34.8470012,35.1 L34.8470012,23.8138776 L35.1811506,23.8138776 C37.2576499,23.8138776 39,22.0708163 39,19.9138776 L39,3.82040816 C38.9840881,1.74306122 37.2417381,0 35.1652387,0 Z M8.75948592,1.66346939 L35.1652387,1.66346939 C36.3268054,1.66346939 37.3212974,2.65836735 37.3212974,3.82040816 L37.3212974,5.48387755 L6.60342717,5.48387755 L6.60342717,3.82040816 C6.60342717,2.65836735 7.59791922,1.66346939 8.75948592,1.66346939 Z M33.1762546,35.1 C33.1762546,36.2620408 32.1817625,37.2569388 31.0201958,37.2569388 L3.81884945,37.2569388 C2.65728274,37.2569388 1.6627907,36.2620408 1.6627907,35.1 L1.6627907,18.9985714 C1.6627907,17.8365306 2.65728274,16.8416327 3.81884945,16.8416327 L31.0281518,16.8416327 C32.1897185,16.8416327 33.1842105,17.8365306 33.1842105,18.9985714 L33.1842105,35.1 L33.1762546,35.1 Z M35.1652387,22.1583673 L34.8310894,22.1583673 L34.8310894,19.0065306 C34.8310894,16.9291837 33.0887393,15.1861224 31.0122399,15.1861224 L6.60342717,15.1861224 L6.60342717,7.13938776 L37.3212974,7.13938776 L37.3212974,20.0014286 C37.3212974,21.1634694 36.3268054,22.1583673 35.1652387,22.1583673 Z"/>
    </g>
</svg>
