<svg width="40" height="40" viewBox="0 0 40 40">
    <title>Check</title>
    <defs>
        <linearGradient id="check-a" x1="0%" x2="85.595%" y1="7.231%" y2="100%">
            <stop offset="0%" stop-color="#6F5DF5"/>
            <stop offset="100%" stop-color="#4E96F3"/>
        </linearGradient>
    </defs>
    <g fill="url(#check-a)">
        <path d="M20,0 C8.97230769,0 0,8.97153846 0,20 C0,31.0284615 8.97230769,40 20,40 C31.0276923,40 40,31.0284615 40,20 C40,8.97153846 31.0276923,0 20,0 Z M20,38.4615385 C9.82076923,38.4615385 1.53846154,30.1792308 1.53846154,20 C1.53846154,9.82076923 9.82076923,1.53846154 20,1.53846154 C30.1792308,1.53846154 38.4615385,9.82076923 38.4615385,20 C38.4615385,30.1792308 30.1792308,38.4615385 20,38.4615385 Z"/>
        <path d="M29.6884943,12.2523501 L18.1621062,25.2195423 L11.2180742,19.6644241 C10.8955843,19.4056803 10.4223492,19.458929 10.1643573,19.7814214 C9.90561539,20.1054137 9.95811374,20.5771525 10.2813536,20.8358963 L17.7811181,26.8357539 C17.9191138,26.9460013 18.0848586,27 18.2498534,27 C18.4568469,27 18.6630904,26.914502 18.8108358,26.748006 L30.8104591,13.2483264 C31.0857004,12.9393338 31.0579513,12.464595 30.748211,12.1901016 C30.4377208,11.9141081 29.9644856,11.9418575 29.6884943,12.2523501 Z"/>
    </g>
</svg>
