<svg xmlns="http://www.w3.org/2000/svg" width="36" height="45" viewBox="0 0 36 45">
    <defs>
        <linearGradient id="file-a" x1="0%" x2="85.595%" y1="7.231%" y2="100%">
            <stop offset="0%" stop-color="#6F5DF5"/>
            <stop offset="100%" stop-color="#4E96F3"/>
        </linearGradient>
    </defs>
    <g fill="url(#file-a)">
        <path d="M29.25 18.75L10.5 18.75C10.086 18.75 9.75 19.08525 9.75 19.5 9.75 19.91475 10.086 20.25 10.5 20.25L29.25 20.25C29.664 20.25 30 19.91475 30 19.5 30 19.08525 29.664 18.75 29.25 18.75zM10.5 14.25L18 14.25C18.414 14.25 18.75 13.91475 18.75 13.5 18.75 13.08525 18.414 12.75 18 12.75L10.5 12.75C10.086 12.75 9.75 13.08525 9.75 13.5 9.75 13.91475 10.086 14.25 10.5 14.25zM29.25 24.75L10.5 24.75C10.086 24.75 9.75 25.08525 9.75 25.5 9.75 25.91475 10.086 26.25 10.5 26.25L29.25 26.25C29.664 26.25 30 25.91475 30 25.5 30 25.08525 29.664 24.75 29.25 24.75zM29.25 30.75L10.5 30.75C10.086 30.75 9.75 31.08525 9.75 31.5 9.75 31.91475 10.086 32.25 10.5 32.25L29.25 32.25C29.664 32.25 30 31.91475 30 31.5 30 31.08525 29.664 30.75 29.25 30.75zM29.25 36.75L10.5 36.75C10.086 36.75 9.75 37.08525 9.75 37.5 9.75 37.91475 10.086 38.25 10.5 38.25L29.25 38.25C29.664 38.25 30 37.91475 30 37.5 30 37.08525 29.664 36.75 29.25 36.75z"/>
        <path d="M32.25,10.9395 L32.25,0 L0,0 L0,41.25 L3.75,41.25 L3.75,45 L36,45 L36,14.6895 L32.25,10.9395 Z M25.5,6.3105 L32.25,13.0605 L33.4395,14.25 L25.5,14.25 L25.5,6.3105 Z M1.5,39.75 L1.5,1.5 L30.75,1.5 L30.75,9.4395 L25.0605,3.75 L3.75,3.75 L3.75,39.75 L1.5,39.75 Z M5.25,43.5 L5.25,41.25 L5.25,5.25 L24,5.25 L24,15.75 L34.5,15.75 L34.5,43.5 L5.25,43.5 Z"/>
    </g>
</svg>
