<svg width="40" height="40" viewBox="0 0 40 40">
    <title>Information</title>
    <defs>
        <linearGradient id="information-a" x1="0%" x2="85.595%" y1="7.231%" y2="100%">
            <stop offset="0%" stop-color="#6F5DF5"/>
            <stop offset="100%" stop-color="#4E96F3"/>
        </linearGradient>
    </defs>
    <g fill="url(#information-a)">
        <path d="M20,0 C8.972,0 0,8.97212121 0,20.0001212 C0,31.0281212 8.972,40 20,40 C31.028,40 40,31.0281212 40,20.0001212 C40,8.97212121 31.028,0 20,0 Z M20,37.1818182 C10.5258182,37.1818182 2.81818182,29.4741818 2.81818182,20.0001273 C2.81818182,10.5260727 10.5258182,2.81818182 20,2.81818182 C29.4741818,2.81818182 37.1818182,10.5260727 37.1818182,20.0001273 C37.1818182,29.4741818 29.4740545,37.1818182 20,37.1818182 Z"/>
        <path d="M19.5 8C18.1214743 8 17 9.122 17 10.501125 17 11.879 18.1214743 13 19.5 13 20.8785257 13 22 11.879 22 10.501125 22 9.122 20.8785257 8 19.5 8zM20 17C18.8954667 17 18 17.8395 18 18.875L18 30.125C18 31.1605 18.8954667 32 20 32 21.1045333 32 22 31.1605 22 30.125L22 18.875C22 17.8395 21.1045333 17 20 17z"/>
    </g>
</svg>
