<svg xmlns="http://www.w3.org/2000/svg" width="70" height="32" viewBox="0 0 70 32">
    <path fill="#FFF" fill-rule="evenodd"
          d="M1376.721,56.924 C1376.84767,54.8973232 1376.911,52.7946776 1376.911,50.616 C1376.911,46.5373129 1376.759,41.6100289 1376.455,35.834 L1382.611,35.492 C1382.94033,40.3560243 1383.105,44.9666449 1383.105,49.324 C1383.105,52.0853471 1383.05433,54.3273247 1382.953,56.05 C1382.421,56.3540015 1381.57234,56.600999 1380.407,56.791 C1379.24166,56.981001 1378.08901,57.0886665 1376.949,57.114 L1376.721,56.924 Z M1368.209,66.728 C1367.32233,66.398665 1366.28367,65.8286707 1365.093,65.018 C1363.87699,64.2326627 1363.003,63.51067 1362.471,62.852 C1363.68701,61.0533243 1364.87766,58.9126791 1366.043,56.43 C1367.25901,53.896654 1368.25966,51.3380129 1369.045,48.754 L1374.365,50.54 C1373.93433,53.0480125 1373.14901,55.7966517 1372.009,58.786 C1371.29966,60.6353426 1370.57134,62.2883261 1369.824,63.745 C1369.07666,65.2016739 1368.53833,66.1959973 1368.209,66.728 Z M1359.317,46.854 C1358.785,46.6513323 1358.08834,46.2523363 1357.227,45.657 C1356.36566,45.0616637 1355.77033,44.5486688 1355.441,44.118 C1355.517,43.788665 1355.71333,43.3390028 1356.03,42.769 C1356.34667,42.1989972 1356.70766,41.679669 1357.113,41.211 C1357.51834,40.742331 1357.873,40.4826669 1358.177,40.432 C1358.45567,40.3813331 1358.88,40.5079985 1359.45,40.812 C1360.02,41.1160015 1360.552,41.4896644 1361.046,41.933 C1361.54,42.3763356 1361.81233,42.7246654 1361.863,42.978 C1361.96433,43.3580019 1361.67934,44.0229953 1361.008,44.973 C1360.33666,45.9230047 1359.773,46.5499985 1359.317,46.854 Z M1357.075,66.728 C1356.18833,66.398665 1355.14967,65.8286707 1353.959,65.018 C1352.74299,64.2326627 1351.869,63.51067 1351.337,62.852 C1352.55301,61.0533243 1353.74366,58.9126791 1354.909,56.43 C1356.12501,53.896654 1357.12566,51.3380129 1357.911,48.754 L1363.231,50.54 C1362.80033,53.0480125 1362.01501,55.7966517 1360.875,58.786 C1360.16566,60.6353426 1359.43734,62.2883261 1358.69,63.745 C1357.94266,65.2016739 1357.40433,66.1959973 1357.075,66.728 Z M1351.185,44.004 C1351.66634,45.5240076 1351.907,47.1706578 1351.907,48.944 C1351.907,50.2866734 1351.76767,51.5786605 1351.489,52.82 C1351.21033,54.0613395 1350.81767,55.0873293 1350.311,55.898 C1349.24699,56.2020015 1347.84101,56.4616656 1346.093,56.677 C1344.34499,56.8923344 1342.43234,57 1340.355,57 C1339.975,57 1339.709,56.7150029 1339.557,56.145 C1339.405,55.5749972 1339.329,54.6820061 1339.329,53.466 C1339.329,52.2753274 1339.39867,51.3886696 1339.538,50.806 C1339.67733,50.2233304 1339.94966,49.932 1340.355,49.932 C1343.06568,49.932 1345.06699,49.7800015 1346.359,49.476 C1346.15633,48.6146624 1345.90933,47.7660042 1345.618,46.93 C1345.32667,46.0939958 1345.15567,45.5873342 1345.105,45.41 L1351.185,44.004 Z M1351.071,62.054 C1351.12167,62.4340019 1350.843,63.0546624 1350.235,63.916 C1349.627,64.7773376 1349.10767,65.3599985 1348.677,65.664 C1348.19566,65.4613323 1347.58767,65.1130025 1346.853,64.619 C1346.11833,64.1249975 1345.57367,63.6753354 1345.219,63.27 C1344.96567,63.7260023 1344.63634,64.1946643 1344.231,64.676 C1343.82566,65.1573357 1343.49633,65.4866658 1343.243,65.664 C1342.73633,65.4359989 1342.09034,65.0496694 1341.305,64.505 C1340.51966,63.9603306 1339.96233,63.4980019 1339.633,63.118 C1339.785,62.5859973 1340.165,61.8766711 1340.773,60.99 C1341.381,60.1033289 1341.88766,59.66 1342.293,59.66 C1342.69834,59.66 1343.30633,59.9449972 1344.117,60.515 C1344.92767,61.0850029 1345.42167,61.5599981 1345.599,61.94 C1345.95367,61.3066635 1346.321,60.7683356 1346.701,60.325 C1347.081,59.8816645 1347.423,59.66 1347.727,59.66 C1348.13234,59.66 1348.772,59.9703302 1349.646,60.591 C1350.52,61.2116698 1350.995,61.6993316 1351.071,62.054 Z M1340.355,49.932 C1340.76034,49.932 1341.03267,50.2233304 1341.172,50.806 C1341.31133,51.3886696 1341.381,52.2753274 1341.381,53.466 C1341.381,54.6820061 1341.305,55.5749972 1341.153,56.145 C1341.001,56.7150029 1340.735,57 1340.355,57 C1339.34166,57 1338.33467,56.7846688 1337.334,56.354 C1336.33333,55.9233312 1335.55434,55.2520046 1334.997,54.34 L1334.693,54.34 C1334.13566,55.3280049 1333.33767,56.0183314 1332.299,56.411 C1331.26033,56.8036686 1329.94301,57 1328.347,57 C1327.967,57 1327.701,56.7150029 1327.549,56.145 C1327.397,55.5749972 1327.321,54.6820061 1327.321,53.466 C1327.321,52.2753274 1327.39067,51.3886696 1327.53,50.806 C1327.66933,50.2233304 1327.94166,49.932 1328.347,49.932 C1329.89234,49.932 1331.12733,49.6660027 1332.052,49.134 C1332.97667,48.6019973 1333.60367,47.5253414 1333.933,45.904 L1337.163,46.398 C1337.13767,46.6006677 1337.125,46.8919981 1337.125,47.272 C1337.125,48.3360053 1337.35933,49.0453316 1337.828,49.4 C1338.29667,49.7546684 1339.13899,49.932 1340.355,49.932 Z M1334.579,43.244 C1334.047,43.0413323 1333.35034,42.6423363 1332.489,42.047 C1331.62766,41.4516637 1331.03233,40.9386688 1330.703,40.508 C1330.779,40.178665 1330.97533,39.7290029 1331.292,39.159 C1331.60867,38.5889972 1331.96966,38.069669 1332.375,37.601 C1332.78034,37.132331 1333.135,36.8726669 1333.439,36.822 C1333.71767,36.7713331 1334.142,36.8979985 1334.712,37.202 C1335.282,37.5060015 1335.814,37.8796644 1336.308,38.323 C1336.802,38.7663356 1337.07433,39.1146654 1337.125,39.368 C1337.22633,39.7480019 1336.94134,40.4129953 1336.27,41.363 C1335.59866,42.3130047 1335.035,42.9399985 1334.579,43.244 Z M1328.347,49.932 C1328.75234,49.932 1329.02467,50.2233304 1329.164,50.806 C1329.30333,51.3886696 1329.373,52.2753274 1329.373,53.466 C1329.373,54.6820061 1329.297,55.5749972 1329.145,56.145 C1328.993,56.7150029 1328.727,57 1328.347,57 C1327.40966,57 1326.42167,56.9240008 1325.383,56.772 C1324.74966,58.6213426 1323.92634,60.3883249 1322.913,62.073 C1321.89966,63.7576751 1320.88634,65.2079939 1319.873,66.424 C1319.06233,66.1199985 1318.05534,65.569004 1316.852,64.771 C1315.64866,63.972996 1314.743,63.2320034 1314.135,62.548 C1314.211,62.4466662 1314.306,62.3453338 1314.42,62.244 C1314.534,62.1426662 1314.64167,62.0286673 1314.743,61.902 C1316.87101,59.697989 1318.46699,57.798008 1319.531,56.202 C1318.03633,55.872665 1316.78234,55.2456713 1315.769,54.321 C1314.75566,53.3963287 1314.249,52.2373403 1314.249,50.844 C1314.249,49.6026605 1314.591,48.3296732 1315.275,47.025 C1315.959,45.7203268 1316.82666,44.6436709 1317.878,43.795 C1318.92934,42.9463291 1319.97433,42.522 1321.013,42.522 C1322.12767,42.522 1323.09033,42.8766631 1323.901,43.586 C1324.71167,44.2953369 1325.33866,45.2073278 1325.782,46.322 C1326.22534,47.4366722 1326.485,48.6146605 1326.561,49.856 C1327.37167,49.9066669 1327.967,49.932 1328.347,49.932 Z M1318.163,49.4 C1318.315,49.6786681 1318.96099,49.8939992 1320.101,50.046 C1320.709,50.1220004 1321.34233,50.16 1322.001,50.16 C1322.55834,50.16 1322.96367,50.1473335 1323.217,50.122 C1322.78633,49.5899973 1322.248,49.1530017 1321.602,48.811 C1320.956,48.4689983 1320.329,48.298 1319.721,48.298 C1319.265,48.298 1318.89133,48.3929991 1318.6,48.583 C1318.30867,48.7730009 1318.163,49.0453316 1318.163,49.4 Z"
          transform="translate(-1314 -35)"/>
</svg>
