<svg xmlns="http://www.w3.org/2000/svg" width="26" height="50" viewBox="0 0 26 50">
    <defs>
        <linearGradient id="price-a" x1="0%" x2="85.595%" y1="7.231%" y2="100%">
            <stop offset="0%" stop-color="#6F5DF5"/>
            <stop offset="100%" stop-color="#4E96F3"/>
        </linearGradient>
    </defs>
    <path fill="url(#price-a)"
          d="M16.6357724,23.6919831 L9.31138211,23.6919831 C5.5804878,23.6919831 2.54715447,20.664557 2.54715447,16.9409283 C2.54715447,13.2172996 5.5804878,10.1898734 9.31138211,10.1898734 L22.2373984,10.1898734 C22.9349593,10.1898734 23.5056911,9.62025316 23.5056911,8.92405063 C23.5056911,8.2278481 22.9349593,7.65822785 22.2373984,7.65822785 L14.2365854,7.65822785 L14.2365854,1.26582278 C14.2365854,0.569620253 13.6658537,0 12.9682927,0 C12.2707317,0 11.7,0.569620253 11.7,1.26582278 L11.7,7.65822785 L9.30081301,7.65822785 C4.17479675,7.65822785 0,11.8248945 0,16.9409283 C0,22.056962 4.17479675,26.2236287 9.30081301,26.2236287 L16.6252033,26.2236287 C20.3560976,26.2236287 23.3894309,29.2510549 23.3894309,32.9746835 C23.3894309,36.6983122 20.3560976,39.7257384 16.6252033,39.7257384 L3.46666667,39.7257384 C2.76910569,39.7257384 2.19837398,40.2953586 2.19837398,40.9915612 C2.19837398,41.6877637 2.76910569,42.257384 3.46666667,42.257384 L11.7,42.257384 L11.7,48.7341772 C11.7,49.4303797 12.2707317,50 12.9682927,50 C13.6658537,50 14.2365854,49.4303797 14.2365854,48.7341772 L14.2365854,42.257384 L16.699187,42.257384 C16.7097561,42.257384 16.7308943,42.257384 16.7414634,42.257384 C21.8146341,42.1940928 25.9260163,38.0590717 25.9260163,32.9746835 C25.9365854,27.8586498 21.7617886,23.6919831 16.6357724,23.6919831 Z"/>
</svg>
