<svg width="38" height="38" viewBox="0 0 38 38">
    <title>User</title>
    <defs>
        <linearGradient id="user-a" x1="0%" x2="85.595%" y1="7.231%" y2="100%">
            <stop offset="0%" stop-color="#6F5DF5"/>
            <stop offset="100%" stop-color="#4E96F3"/>
        </linearGradient>
    </defs>
    <path fill="url(#user-a)"
          d="M38,19 C38,8.52374545 29.4762545,0 19,0 C8.52374545,0 0,8.52374545 0,19 C0,24.5334909 2.37949091,29.5211636 6.16705455,32.9964364 L6.14909091,33.0123273 L6.76538182,33.5318909 C6.80545455,33.5657455 6.84898182,33.5933818 6.88905455,33.6265455 C7.21654545,33.8980727 7.55578182,34.1557818 7.90123636,34.4052 C8.01316364,34.4860364 8.12509091,34.5668727 8.23909091,34.6456364 C8.60803636,34.8998909 8.98665455,35.1410182 9.37356364,35.3697091 C9.45785455,35.4194545 9.54283636,35.4678182 9.62781818,35.5161818 C10.0513455,35.7573091 10.4838545,35.9846182 10.9267273,36.1932727 C10.9592,36.2084727 10.9923636,36.2222909 11.0248364,36.2374909 C12.4681455,36.9083636 14.0088727,37.4009818 15.6200727,37.6918545 C15.6622182,37.6994545 15.7043636,37.7070545 15.7472,37.7146545 C16.2474182,37.8010182 16.7531636,37.8701091 17.2651273,37.9164 C17.3273091,37.9219273 17.3894909,37.9253818 17.4523636,37.9309091 C17.9622545,37.9730545 18.4776727,38 19,38 C19.5174909,38 20.0280727,37.9730545 20.5352,37.9322909 C20.5994545,37.9267636 20.6637091,37.9233091 20.7279636,37.9177818 C21.2357818,37.8714909 21.7373818,37.8044727 22.2327636,37.7194909 C22.2756,37.7118909 22.3191273,37.7042909 22.3619636,37.696 C23.9489818,37.4113455 25.4676,36.9297818 26.8922545,36.2761818 C26.9447636,36.252 26.9979636,36.2292 27.0504727,36.2043273 C27.4767636,36.0039636 27.8933818,35.7877091 28.3017091,35.5576364 C28.4032727,35.5002909 28.5041455,35.4422545 28.6050182,35.3828364 C28.9767273,35.1638182 29.3422182,34.9351273 29.6973455,34.6919273 C29.8251636,34.6048727 29.9502182,34.5129818 30.0766545,34.4217818 C30.3799636,34.2034545 30.6777455,33.9782182 30.9672364,33.7426182 C31.0314909,33.6908 31.1005818,33.6458909 31.1634545,33.5926909 L31.7956364,33.0648364 L31.7769818,33.0489455 C35.5977091,29.5722909 38,24.5618182 38,19 Z M1.38181818,19 C1.38181818,9.28512727 9.28512727,1.38181818 19,1.38181818 C28.7148727,1.38181818 36.6181818,9.28512727 36.6181818,19 C36.6181818,24.2350182 34.3209091,28.9414909 30.6839636,32.1708 C30.4808364,32.0305455 30.2763273,31.9048 30.0669818,31.7997818 L24.2170545,28.8751636 C23.6919636,28.6126182 23.3658545,28.0847636 23.3658545,27.4981818 L23.3658545,25.4551636 C23.5012727,25.2879636 23.6442909,25.0986545 23.7921455,24.8906909 C24.5493818,23.8211636 25.1566909,22.6314182 25.5995636,21.3511636 C26.4749455,20.9352364 27.0401091,20.0633091 27.0401091,19.0787636 L27.0401091,16.6294909 C27.0401091,16.0304727 26.8204,15.4494182 26.4272727,14.9927273 L26.4272727,11.7682545 C26.4632,11.4096727 26.5903273,9.386 25.1262909,7.71676364 C23.8529455,6.26309091 21.7919636,5.52727273 19,5.52727273 C16.2080364,5.52727273 14.1470545,6.26309091 12.8737091,7.71607273 C11.4096727,9.38530909 11.5368,11.4089818 11.5727273,11.7675636 L11.5727273,14.9920364 C11.1802909,15.4487273 10.9598909,16.0297818 10.9598909,16.6288 L10.9598909,19.0780727 C10.9598909,19.8387636 11.3012,20.5483273 11.8857091,21.0271273 C12.4453455,23.2193818 13.5970909,24.8789455 14.0226909,25.4413455 L14.0226909,27.4408364 C14.0226909,28.0046182 13.7152364,28.5228 13.2198545,28.7936364 L7.75683636,31.7735273 C7.58272727,31.8681818 7.41,31.9787273 7.23727273,32.1024 C3.64523636,28.8744727 1.38181818,24.1970182 1.38181818,19 Z M29.3353091,33.2548364 C29.0934909,33.4303273 28.8475273,33.6002909 28.5981091,33.7626545 C28.4834182,33.8372727 28.3694182,33.9118909 28.2526545,33.9844364 C27.9265455,34.1861818 27.5949091,34.3782545 27.2563636,34.5578909 C27.1817455,34.5972727 27.1064364,34.6345818 27.0311273,34.6732727 C26.2531636,35.0719273 25.4482545,35.4146182 24.6212364,35.6930545 C24.5922182,35.7027273 24.5632,35.7130909 24.5334909,35.7227636 C24.1002909,35.8664727 23.6615636,35.9942909 23.218,36.1041455 C23.2166182,36.1041455 23.2152364,36.1048364 23.2138545,36.1048364 C22.7661455,36.2153818 22.3129091,36.3072727 21.8569091,36.3825818 C21.8444727,36.3846545 21.8320364,36.3874182 21.8196,36.3894909 C21.3905455,36.4592727 20.9580364,36.5097091 20.5241455,36.5477091 C20.4474545,36.5546182 20.3707636,36.5594545 20.2933818,36.5649818 C19.8643273,36.5974545 19.4332,36.6181818 19,36.6181818 C18.5619636,36.6181818 18.1253091,36.5967636 17.6907273,36.5642909 C17.6154182,36.5587636 17.5401091,36.5539273 17.4654909,36.5470182 C17.0274545,36.5083273 16.5914909,36.4565091 16.1596727,36.3860364 C16.1403273,36.3825818 16.1209818,36.3791273 16.1016364,36.3756727 C15.1882545,36.2229818 14.2893818,35.9984364 13.414,35.7048 C13.3870545,35.6958182 13.3594182,35.6861455 13.3324727,35.6771636 C12.8978909,35.5293091 12.4681455,35.3655636 12.046,35.1845455 C12.0432364,35.1831636 12.0397818,35.1817818 12.0370182,35.1804 C11.6376727,35.0083636 11.2459273,34.8176727 10.8590182,34.6166182 C10.8085818,34.5903636 10.7574545,34.5654909 10.7077091,34.5385455 C10.3546545,34.3499273 10.0092,34.1461091 9.66858182,33.9333091 C9.56770909,33.8697455 9.46752727,33.8054909 9.36803636,33.7405455 C9.05436364,33.5353455 8.74483636,33.3218545 8.4436,33.0959273 C8.41250909,33.0724364 8.3828,33.0475636 8.35170909,33.0240727 C8.37381818,33.0116364 8.39592727,32.9992 8.41803636,32.9867636 L13.8810545,30.0068727 C14.8206909,29.4942182 15.4045091,28.5110545 15.4045091,27.4408364 L15.4038182,24.9521818 L15.2449091,24.7601091 C15.2297091,24.7428364 13.7359636,22.9257455 13.1714909,20.4654182 L13.1086182,20.1918182 L12.8730182,20.0391273 C12.5406909,19.8242545 12.3417091,19.4649818 12.3417091,19.0773818 L12.3417091,16.6281091 C12.3417091,16.3068364 12.4778182,16.0076727 12.7265455,15.7831273 L12.9545455,15.5772364 L12.9545455,11.7288727 L12.9483273,11.6383636 C12.9462545,11.6217818 12.7424364,9.96014545 13.9128364,8.626 C14.9118909,7.48738182 16.6239636,6.90909091 19,6.90909091 C21.3670545,6.90909091 23.0736,7.48254545 24.0754182,8.61287273 C25.2444364,9.9332 25.0530545,11.6259273 25.0516727,11.6397455 L25.0454545,15.5786182 L25.2734545,15.7845091 C25.5214909,16.0083636 25.6582909,16.3082182 25.6582909,16.6294909 L25.6582909,19.0787636 C25.6582909,19.5713818 25.3232,20.0184 24.8423273,20.1669455 L24.4989455,20.2726545 L24.3884,20.6146545 C23.9807636,21.8810909 23.4004,23.0508 22.6638909,24.0913091 C22.4828727,24.3469455 22.3066909,24.5735636 22.1553818,24.7469818 L21.9840364,24.9425091 L21.9840364,27.4981818 C21.9840364,28.6119273 22.6030909,29.6137455 23.5993818,30.1112 L29.4493091,33.0358182 C29.4866182,33.0544727 29.5232364,33.0738182 29.5598545,33.0931636 C29.4859273,33.1491273 29.4099273,33.2009455 29.3353091,33.2548364 Z"/>
</svg>
