<svg xmlns:xlink="http://www.w3.org/1999/xlink" xmlns="http://www.w3.org/2000/svg" width="406" height="246"
     viewBox="0 0 406 246">
    <defs>
        <rect id="visa-b" width="360" height="200" rx="15"/>
        <filter id="visa-a" width="123.6%" height="142.5%" x="-11.8%" y="-13.2%" filterUnits="objectBoundingBox">
            <feOffset dy="16" in="SourceAlpha" result="shadowOffsetOuter1"/>
            <feGaussianBlur in="shadowOffsetOuter1" result="shadowBlurOuter1" stdDeviation="11.5"/>
            <feColorMatrix in="shadowBlurOuter1" values="0 0 0 0 0   0 0 0 0 0   0 0 0 0 0  0 0 0 0.1 0"/>
        </filter>
    </defs>
    <g fill="none" fill-rule="evenodd" transform="translate(23 7)">
        <use fill="#000" filter="url(#visa-a)" xlink:href="#visa-b"/>
        <use fill="#FFF" xlink:href="#visa-b"/>
        <g transform="translate(274 155)">
            <polyline fill="#26337A" points="21 19 24.079 0 29 0 25.922 19 21 19"/>
            <path fill="#26337A"
                  d="M44 .812922056C43.0115891.424058601 41.457065 0 39.5205573 0 34.578217 0 31.0991937 2.62933501 31.0703162 6.39435733 31.0388655 9.17935218 33.552923 10.7325169 35.4482588 11.6581779 37.396203 12.6070161 38.0506643 13.214204 38.0429446 14.0626073 38.0295065 15.3602495 36.4881345 15.9548472 35.0508358 15.9548472 33.0494253 15.9548472 31.9861045 15.6621266 30.3420887 14.9387662L29.6990641 14.6303079 29 18.9673229C30.1656787 19.5069818 32.3266302 19.975392 34.5693536 20 39.8219126 20 43.2348894 17.4024265 43.2749176 13.3818817 43.2929303 11.1734577 41.9608486 9.49954218 39.0759583 8.11748884 37.3290128 7.2190111 36.2568286 6.62384114 36.269123 5.7144901 36.2702667 4.90929381 37.1749042 4.04715577 39.1328555 4.04715577 40.7680079 4.02083095 41.9516993 4.39796269 42.8740636 4.79169051L43.3229514 5.01316241 44 .812922056M50.760316 12.2525123C51.175694 11.1597062 52.7569397 6.93813915 52.7569397 6.93813915 52.7276998 6.98839924 53.1700244 5.83690962 53.4231498 5.12428327L53.7614149 6.76405391C53.7614149 6.76405391 54.7231769 11.302063 54.9212626 12.2525123L50.760316 12.2525123 50.760316 12.2525123zM56.9436862 0L53.0702648 0C51.8688506 0 50.9695816.336377608 50.4432642 1.57603298L43 19 48.2643213 19C48.2643213 19 49.1231705 16.6560265 49.3181029 16.1416327 49.8922935 16.1416327 55.0075489 16.1514601 55.7376853 16.1514601 55.8878979 16.8149495 56.3479957 19 56.3479957 19L61 19 56.9436862 0 56.9436862 0zM16.894544 0L12.1789963 12.9756646 11.6739067 10.3380328C10.7951665 7.29902215 8.05974649 4.00507419 5 2.35458674L9.3140662 19 14.4129089 18.9969081 22 0 16.894544 0"/>
            <path fill="#EC982D"
                  d="M8.03022599,0 L0.0655367232,0 L0,0.380980829 C6.19745763,1.9040895 10.2980226,5.58056808 12,10 L10.269209,1.55134959 C9.97062147,0.386140227 9.10282486,0.0407320915 8.03022599,0"/>
        </g>
    </g>
</svg>
